<svg width="22" height="22" viewBox="0 0 22 22" fill="none" xmlns="http://www.w3.org/2000/svg">
<g opacity="0.4">
<path d="M16.6176 0.5C17.1568 0.5 17.4889 0.963195 17.6586 1.35059C17.8477 1.78225 17.9418 2.33261 17.9418 2.88086C17.9418 3.42926 17.8478 3.98038 17.6586 4.41211C17.4889 4.79943 17.1566 5.26172 16.6176 5.26172H5.38227C4.84328 5.26172 4.511 4.79943 4.34126 4.41211C4.15213 3.98038 4.05805 3.42926 4.05805 2.88086C4.05807 2.33263 4.15223 1.78224 4.34126 1.35059C4.51095 0.963194 4.84313 0.5 5.38227 0.5H16.6176Z" stroke="black"/>
<path d="M20.1758 8.61902C20.7149 8.61902 21.0471 9.08221 21.2168 9.4696C21.4058 9.90126 21.5 10.4516 21.5 10.9999C21.5 11.5483 21.4059 12.0994 21.2168 12.5311C21.0471 12.9185 20.7148 13.3807 20.1758 13.3807H1.82422C1.28523 13.3807 0.952943 12.9185 0.783203 12.5311C0.594081 12.0994 0.5 11.5483 0.5 10.9999C0.500014 10.4516 0.59418 9.90126 0.783203 9.4696C0.952902 9.08221 1.28508 8.61902 1.82422 8.61902H20.1758Z" stroke="black"/>
<path d="M16.1534 16.738C16.4214 16.738 16.646 16.8608 16.8126 17.0183C16.976 17.1729 17.1008 17.3748 17.1944 17.5886C17.2894 17.8056 17.3604 18.0518 17.4073 18.3103C17.4543 18.5696 17.4776 18.8441 17.4776 19.1189C17.4776 19.3939 17.4544 19.669 17.4073 19.9285C17.3604 20.187 17.2895 20.4332 17.1944 20.6501C17.1007 20.8639 16.9761 21.0659 16.8126 21.2205C16.646 21.3779 16.4214 21.4998 16.1534 21.4998H5.84677C5.57881 21.4998 5.35414 21.3779 5.18759 21.2205C5.02413 21.0659 4.89944 20.8639 4.80576 20.6501C4.71072 20.4332 4.63979 20.187 4.59286 19.9285C4.54578 19.669 4.52255 19.3939 4.52255 19.1189C4.52256 18.8441 4.54584 18.5696 4.59286 18.3103C4.63977 18.0518 4.71075 17.8056 4.80576 17.5886C4.89941 17.3748 5.02417 17.1729 5.18759 17.0183C5.35415 16.8608 5.57874 16.738 5.84677 16.738H16.1534Z" stroke="black"/>
</g>
</svg>
