<svg width="20" height="20" viewBox="0 0 20 20" fill="none" xmlns="http://www.w3.org/2000/svg">
<path d="M2.02 20C1.44417 20 0.96375 19.8075 0.57875 19.4225C0.19375 19.0375 0.000833333 18.5567 0 17.98V2.02C0 1.44417 0.192916 0.96375 0.57875 0.57875C0.964583 0.19375 1.445 0.000833333 2.02 0H10.0238V1.25H2.02C1.8275 1.25 1.65083 1.33 1.49 1.49C1.32917 1.65 1.24917 1.82667 1.25 2.02V17.9813C1.25 18.1729 1.33 18.3492 1.49 18.51C1.65 18.6708 1.82625 18.7508 2.01875 18.75H10.0238V20H2.02ZM15.5775 14.4237L14.7 13.5238L17.5988 10.625H6.49V9.375H17.5988L14.6987 6.475L15.5763 5.5775L20 10L15.5775 14.4237Z" fill="black"/>
</svg>
