<svg width="22" height="22" viewBox="0 0 22 22" fill="none" xmlns="http://www.w3.org/2000/svg">
<g opacity="0.4">
<path d="M9.35449 11.7275C9.86136 11.7275 10.2725 12.1386 10.2725 12.6455V20.582C10.2725 21.0889 9.86136 21.5 9.35449 21.5H1.41797C0.911103 21.5 0.5 21.0889 0.5 20.582V12.6455C0.5 12.1386 0.9111 11.7275 1.41797 11.7275H9.35449ZM15.2764 0.706055C15.6129 0.431248 16.099 0.431337 16.4355 0.706055L16.5049 0.768555L21.2314 5.49512C21.5897 5.85351 21.5897 6.43462 21.2314 6.79297L16.5049 11.5195C16.4101 11.6142 16.2993 11.6829 16.1816 11.7275H19.7988C20.3055 11.7277 20.7158 12.1388 20.7158 12.6455V20.582C20.7158 21.0888 20.3055 21.4998 19.7988 21.5H11.8613C11.3545 21.5 10.9434 21.0889 10.9434 20.582V12.6455C10.9434 12.1386 11.3545 11.7276 11.8613 11.7275H15.5303C15.4126 11.6829 15.3018 11.6142 15.207 11.5195L10.4805 6.79297C10.3855 6.69798 10.3171 6.58671 10.2725 6.46875V10.1387C10.2724 10.6455 9.86135 11.0566 9.35449 11.0566H1.41797C0.911107 11.0566 0.500011 10.6455 0.5 10.1387V2.20117C0.500183 1.69446 0.911214 1.28418 1.41797 1.28418H9.35449C9.86125 1.28418 10.2723 1.69446 10.2725 2.20117V5.81836C10.3171 5.70069 10.3858 5.5899 10.4805 5.49512L15.207 0.768555L15.2764 0.706055Z" stroke="black"/>
</g>
</svg>
